<?xml version="1.0" encoding="UTF-8" standalone="no"?>
<svg
   viewBox="0 0 868.39897 251.32413"
   height="251.32413"
   width="868.39899"
   xml:space="preserve"
   id="svg2"
   version="1.1"
   sodipodi:docname="FORVIA_Faurecia_Logo_RVB.svg"
   inkscape:version="1.2 (dc2aedaf03, 2022-05-15)"
   xmlns:inkscape="http://www.inkscape.org/namespaces/inkscape"
   xmlns:sodipodi="http://sodipodi.sourceforge.net/DTD/sodipodi-0.dtd"
   xmlns="http://www.w3.org/2000/svg"
   xmlns:svg="http://www.w3.org/2000/svg"
   xmlns:rdf="http://www.w3.org/1999/02/22-rdf-syntax-ns#"
   xmlns:cc="http://creativecommons.org/ns#"
   xmlns:dc="http://purl.org/dc/elements/1.1/"><sodipodi:namedview
     id="namedview148"
     pagecolor="#ffffff"
     bordercolor="#000000"
     borderopacity="0.25"
     inkscape:showpageshadow="2"
     inkscape:pageopacity="0.0"
     inkscape:pagecheckerboard="0"
     inkscape:deskcolor="#d1d1d1"
     showgrid="false"
     inkscape:zoom="1.0129755"
     inkscape:cx="434.85752"
     inkscape:cy="108.09739"
     inkscape:window-width="1920"
     inkscape:window-height="991"
     inkscape:window-x="-9"
     inkscape:window-y="-9"
     inkscape:window-maximized="1"
     inkscape:current-layer="g10" /><metadata
     id="metadata8"><rdf:RDF><cc:Work
         rdf:about=""><dc:format>image/svg+xml</dc:format><dc:type
           rdf:resource="http://purl.org/dc/dcmitype/StillImage" /></cc:Work></rdf:RDF></metadata><defs
     id="defs6"><clipPath
       id="clipPath18"
       clipPathUnits="userSpaceOnUse"><path
         id="path16"
         d="M 0,595.276 H 841.89 V 0 H 0 Z" /></clipPath><clipPath
       id="clipPath58"
       clipPathUnits="userSpaceOnUse"><path
         id="path56"
         d="M 0,595.276 H 841.89 V 0 H 0 Z" /></clipPath><clipPath
       id="clipPath110"
       clipPathUnits="userSpaceOnUse"><path
         id="path108"
         d="M 0,595.276 H 841.89 V 0 H 0 Z" /></clipPath><clipPath
       id="clipPath136"
       clipPathUnits="userSpaceOnUse"><path
         id="path134"
         d="M 0,595.276 H 841.89 V 0 H 0 Z" /></clipPath><clipPath
       id="clipPath232"
       clipPathUnits="userSpaceOnUse"><path
         id="path230"
         d="M 0,595.276 H 841.89 V 0 H 0 Z" /></clipPath><clipPath
       id="clipPath276"
       clipPathUnits="userSpaceOnUse"><path
         id="path274"
         d="M 0,595.276 H 841.89 V 0 H 0 Z" /></clipPath><clipPath
       id="clipPath292"
       clipPathUnits="userSpaceOnUse"><path
         id="path290"
         d="M 0,595.276 H 841.89 V 0 H 0 Z" /></clipPath></defs><g
     transform="matrix(1.3333333,0,0,-1.3333333,-127.3619,583.83505)"
     id="g10"><g
   id="g12"><g
     clip-path="url(#clipPath18)"
     id="g14"><g
       transform="translate(267.5926,418.9263)"
       id="g20"><path
         id="path22"
         style="fill:#0024d3;fill-opacity:1;fill-rule:nonzero;stroke:none"
         d="m 0,0 c -26.392,0 -39.089,-11.68 -39.091,-29.971 -0.002,-17.78 11.856,-29.976 39.09,-29.976 28.428,-10e-4 38.815,13.287 38.817,29.969 C 38.817,-11.427 26.173,0 0,0 m 0,-78.9 c -33.849,0 -63.664,13.295 -63.665,48.924 C -63.666,6.109 -33.261,18.95 -0.001,18.95 33.956,18.951 63.25,5.653 63.252,-29.973 63.254,-66.761 32.164,-78.9 0,-78.9" /></g><g
       transform="translate(412.2928,393.1893)"
       id="g24"><path
         id="path26"
         style="fill:#0024d3;fill-opacity:1;fill-rule:evenodd;stroke:none"
         d="M 0,0 H -41.978 V 21.423 H 0 c 13.271,0 16.057,-5.824 16.057,-10.71 C 16.057,5.826 13.271,0 0,0 M 18.181,-49.533 -2.631,-26.01 c -5.958,6.236 -7.031,7.36 -18.109,7.36 h -21.232 l 0.01,-28.643 c 0.002,-1.868 -1.512,-3.377 -3.38,-3.378 h -17.373 c -1.867,10e-4 -3.376,1.521 -3.375,3.389 V 34.75 c 0,4.081 3.24,7.349 7.321,7.384 H 3.496 c 23.859,-0.031 36.997,-10.672 36.997,-30.327 0,-19.914 -16.706,-26.593 -21.191,-28 l 26.337,-33.262 c 0.39,-0.492 0.04,-1.216 -0.588,-1.216 H 20.71 c -1.007,0 -1.91,0.44 -2.529,1.138" /></g><g
       transform="translate(199.6365,431.9442)"
       id="g28"><path
         id="path30"
         style="fill:#0024d3;fill-opacity:1;fill-rule:nonzero;stroke:none"
         d="m 0,0 v -16.192 c 0,-0.727 -0.584,-1.316 -1.311,-1.316 l -78.692,0.041 c 0.002,-3.724 0.011,-5.257 5.947,-5.783 l 47.324,-4.19 c 17.982,-1.564 18.011,-30.226 0.047,-31.866 -14.53,-1.327 -37.656,-3.297 -45.11,-3.949 -5.299,-0.463 -8.208,-2.01 -8.208,-5.914 l 0.01,-16.884 c 0.002,-1.868 -1.512,-3.372 -3.38,-3.373 h -17.441 c -1.868,0.001 -3.302,1.516 -3.301,3.383 v 22.979 c 0.013,8.222 2.747,13.453 9.309,14.079 7.839,0.747 56.118,3.513 56.118,3.513 1.443,0.702 1.423,2.636 -0.035,3.315 0,0 -46.927,2.325 -55.769,3.113 -7.613,0.678 -9.637,6.395 -9.623,14.276 v 20.799 c 0,4.058 3.353,7.348 7.411,7.348 H -3.379 C -1.513,3.379 0,1.866 0,0" /></g><g
       transform="translate(596.2474,435.323)"
       id="g32"><path
         id="path34"
         style="fill:#0024d3;fill-opacity:1;fill-rule:nonzero;stroke:none"
         d="m 0,0 c -4.041,0 -7.342,-3.271 -7.342,-7.312 v -82.104 c -0.001,-1.868 1.487,-3.388 3.355,-3.389 h 17.373 c 1.868,0.001 3.386,1.511 3.384,3.378 V -3.389 C 16.772,-1.521 15.263,-0.001 13.395,0 Z" /></g><g
       transform="translate(666.7879,377.4101)"
       id="g36"><path
         id="path38"
         style="fill:#0024d3;fill-opacity:1;fill-rule:nonzero;stroke:none"
         d="M 0,0 18.288,36.72 36.43,0 Z m -16.381,-33.011 7.903,15.927 h 53.252 l 3.433,-6.921 c 3.309,-6.669 10.11,-10.887 17.554,-10.887 h 13.521 c 0.563,0 0.926,0.598 0.664,1.098 L 32.89,56.097 c -0.564,1.079 -1.694,1.816 -2.997,1.816 H 8.805 c -2.833,0 -5.291,-1.603 -6.517,-3.951 l -45.94,-87.756 c -0.262,-0.5 0.1,-1.098 0.664,-1.098 h 23.578 c 1.328,0 2.477,0.766 3.029,1.881" /></g><g
       transform="translate(552.4955,433.4403)"
       id="g40"><path
         id="path42"
         style="fill:#0024d3;fill-opacity:1;fill-rule:nonzero;stroke:none"
         d="m 0,0 c 0.552,1.115 1.702,1.883 3.03,1.883 h 23.572 c 0.564,0 0.926,-0.599 0.665,-1.098 l -47.056,-89.889 c -0.563,-1.081 -1.694,-1.818 -2.998,-1.818 h -21.09 c -2.827,0 -5.281,1.596 -6.509,3.937 l -45.946,87.77 c -0.261,0.499 0.101,1.098 0.665,1.098 h 23.578 c 1.323,0 2.468,-0.76 3.023,-1.867 L -34.393,-69.7 Z" /></g><g
       transform="translate(440.769,280.0242)"
       id="g44"><path
         id="path46"
         style="fill:#0024d3;fill-opacity:1;fill-rule:nonzero;stroke:none"
         d="m 0,0 v 10.936 h -18.265 v 2.163 c 0,7.209 4.445,10.454 18.866,8.771 V 32.445 C -19.948,35.089 -29.681,27.639 -29.681,13.819 V -29.56 h 11.416 V 0 Z m 239.727,18.265 h 11.416 V 29.32 h -11.416 z m 54.555,-47.825 h 10.695 V 10.936 H 294.282 V 6.73 c -3.364,3.605 -7.931,5.287 -12.977,5.287 -12.017,0 -20.79,-8.652 -20.79,-21.389 0,-12.739 8.653,-21.269 20.79,-21.269 5.046,0 9.613,1.682 12.977,5.408 z m -255.589,0 H 49.387 V 10.936 H 38.693 V 7.09 c -3.124,3.365 -7.33,4.927 -12.979,4.927 -12.016,0 -20.787,-8.652 -20.787,-21.389 0,-12.739 8.651,-21.269 20.787,-21.269 5.528,0 9.855,1.561 12.979,4.927 z M 216.175,1.442 c 3.966,0 6.249,-1.08 8.772,-2.763 l 4.927,8.652 c -3.725,3.004 -8.412,4.566 -14.66,4.566 -11.897,0 -21.75,-7.931 -21.75,-21.269 0,-13.338 9.612,-21.269 22.351,-21.269 6.368,0 10.815,1.442 14.54,4.807 l -5.046,8.291 c -2.405,-1.803 -4.687,-3.005 -8.773,-3.005 -6.609,0 -11.536,4.206 -11.536,10.935 0,6.97 4.927,11.055 11.175,11.055 m -31.963,-27.037 -4.808,8.171 c -2.883,-2.162 -6.128,-3.603 -11.294,-3.603 -4.807,0 -8.773,1.561 -10.935,4.805 l 28.118,8.893 c -1.081,12.376 -8.051,19.226 -19.587,19.226 -12.378,0 -20.788,-8.532 -20.788,-21.149 0,-13.098 9.252,-21.389 23.192,-21.389 6.969,0 12.376,1.801 16.102,5.046 M 112.594,-6.729 V -29.56 h 11.416 v 21.991 c 0,6.367 3.484,8.891 14.058,8.531 V 11.537 C 120.164,12.858 112.594,6.129 112.594,-6.729 M 239.727,-29.56 h 11.416 V 10.935 H 239.727 Z M 101.539,-10.935 V 10.936 H 90.123 V -9.613 c 0,-6.248 -2.283,-10.694 -8.772,-10.694 -6.488,0 -8.772,4.446 -8.772,10.694 V 10.936 H 61.164 v -21.871 c 0,-11.535 6.849,-19.706 20.187,-19.706 13.338,0 20.188,8.171 20.188,19.706 m 64.047,13.339 c 4.326,0 6.488,-1.923 7.45,-4.206 L 155.372,-7.81 c 0.12,6.249 4.086,10.214 10.214,10.214 M 272.172,-9.493 c 0,7.451 4.446,11.657 10.815,11.657 6.128,0 11.175,-4.566 11.175,-11.176 0,-7.33 -5.047,-11.897 -11.175,-11.897 -6.369,0 -10.815,4.807 -10.815,11.416 m -255.59,0 c 0,7.451 4.447,11.657 10.815,11.657 6.128,0 11.176,-4.566 11.176,-11.056 0,-7.45 -5.048,-12.017 -11.176,-12.017 -6.368,0 -10.815,4.807 -10.815,11.416" /></g><path
       id="path48"
       style="fill:#fa0057;fill-opacity:1;fill-rule:nonzero;stroke:none"
       d="m 393.303,280.026 h 10.454 v 10.936 h -10.454 z" /></g></g>







</g></svg>
